<svg aria-hidden="true" width="15" height="15" viewBox="0 0 15 15"><path d="M14.1,1.6C14,0.7,13.3,0,12.4,0H2.7C1.7,0,1,0.7,0.9,1.6L0.1,13.1c0,0.5,0.1,1,0.5,1.3C0.9,14.8,1.3,15,1.8,15h11.4c0.5,0,0.9-0.2,1.3-0.6c0.3-0.4,0.5-0.8,0.5-1.3L14.1,1.6zM13.4,13.4c0,0-0.1,0.1-0.2,0.1H1.8c-0.1,0-0.2-0.1-0.2-0.1c0,0-0.1-0.1-0.1-0.2L2.4,1.7c0-0.1,0.1-0.2,0.2-0.2h9.7c0.1,0,0.2,0.1,0.2,0.2l0.8,11.5C13.4,13.3,13.4,13.4,13.4,13.4z M10,3.2C9.6,3.2,9.2,3.6,9.2,4v1.5c0,1-0.8,1.8-1.8,1.8S5.8,6.5,5.8,5.5V4c0-0.4-0.3-0.8-0.8-0.8S4.2,3.6,4.2,4v1.5c0,1.8,1.5,3.2,3.2,3.2s3.2-1.5,3.2-3.2V4C10.8,3.6,10.4,3.2,10,3.2z"></path></svg>